<svg width="185" height="69" viewBox="0 0 185 69" fill="none" xmlns="http://www.w3.org/2000/svg">
<path d="M66.7898 53.3112H76.865V15.689H66.7898V53.3112Z" fill="white"/>
<path d="M126.462 15.6899V30.0557H117.563V15.6899H78.4912V24.1605H87.6885V53.3113H97.7638V24.1605H107.488V53.3113H117.563V38.5254H126.462V53.3113H136.537V15.6899H126.462Z" fill="white"/>
<path d="M139.701 53.3112H149.776V15.689H139.701V53.3112Z" fill="white"/>
<path d="M52.7842 15.6899H42.709V53.3121H65.0476V44.2574H52.7842V15.6899Z" fill="white"/>
<path d="M167.697 33.358L173.866 53.311L184.31 53.2927L172.157 15.688H163.301L163.288 15.7246L163.27 15.7194L151.104 53.3123L161.233 53.2941L167.697 33.358Z" fill="white"/>
<path d="M16.0435 35.5428L38.5806 43.0064V18.0212C38.5806 16.7326 37.5344 15.689 36.2436 15.689H10.3196V29.123C10.3647 33.5371 11.4605 33.9626 16.0435 35.5428Z" fill="white"/>
<path d="M12.569 40.5439L38.5805 53.312V48.4953L15.4153 38.839C12.8751 37.7778 11.0787 36.8717 9.9764 35.6318C8.90901 34.4322 8.46404 32.9474 8.44106 30.5097V15.689H6.14453V31.9927C6.19326 36.404 7.51438 38.1622 12.569 40.5439Z" fill="white"/>
<path d="M4.26666 34.1199V15.6895H0.689453V50.9813C0.689453 52.1919 1.61526 53.1869 2.7994 53.3016L3.02741 53.312H27.6772H27.6564L11.9923 44.7699C6.78968 41.9837 4.30987 38.7 4.26666 34.1199Z" fill="white"/>
</svg>
